<svg xmlns="http://www.w3.org/2000/svg" version="1.1" xmlns:xlink="http://www.w3.org/1999/xlink" viewBox="0 0 700 700" style="overflow: hidden; display: block;" width="700" height="700"><defs></defs><g id="two-0" transform="matrix(1 0 0 1 0 0)" opacity="1"><path transform="matrix(1 0 0 1 350 350)" id="two-18" d="M 165.208188 48.509501 C 154.498836 63.40075 175.785599 92.110185 161.808696 103.988135 C 141.945266 120.868614 101.47993 77.437355 83.217787 96.038446 C 56.017357 123.743722 132.127009 195.882181 97.208833 212.857653 C 64.577405 228.721423 54.946167 127.719388 19.430812 135.144269 C -34.878789 146.498297 9.853856 271.773263 -41.936858 291.67725 C -67.525542 301.511385 -89.696263 261.364906 -116.248892 254.549565 C -148.523464 246.265555 -187.386277 265.589648 -217.143486 250.596941 C -244.82819 236.648433 -267.026222 207.033008 -275.9583 177.34763 C -285.411537 145.930201 -283.50536 106.600153 -266.826258 78.347258 C -243.41772 38.695306 -148.971281 45.983765 -151.365077 0 C -154.932021 -68.519409 -355.100156 -32.769305 -334.603194 -98.248363 C -312.636723 -168.421873 -155.75479 -12.780304 -113.241904 -72.776153 C -85.262478 -112.261816 -177.225722 -156.276647 -177.347873 -204.670356 C -177.43062 -237.453076 -166.434711 -287.39769 -134.372995 -294.235817 C -90.012076 -303.697119 -62.207267 -236.809203 -29.525694 -205.35571 C -11.557043 -188.062269 -3.373318 -151.245053 21.512489 -149.622649 C 54.211012 -147.490903 64.780328 -212.027641 97.513997 -213.525872 C 119.439088 -214.52939 132.174824 -184.718828 152.11713 -175.552527 C 178.825684 -163.276183 216.951523 -173.338434 238.333836 -153.167857 C 257.500602 -135.087273 255.20241 -102.39435 262.868533 -77.185166 C 270.575324 -51.84225 296.517607 -23.807512 284.904664 -0.000001 C 266.2195 38.306163 190.092584 13.907992 165.208188 48.509501 Z " fill="#ff8e02" stroke="undefined" stroke-width="1" stroke-opacity="1" fill-opacity="1" visibility="visible" stroke-linecap="butt" stroke-linejoin="miter" stroke-miterlimit="4"></path></g></svg>